<svg id="_1up" data-name="1up" xmlns="http://www.w3.org/2000/svg" viewBox="0 0 300 420"><defs><style>.cls-1{fill:#8c4f22;}.cls-2{fill:#512508;}.cls-3{fill:#ffd45a;}.cls-4{opacity:0.8;}.cls-5{fill:#563722;}.cls-6{fill:#3a2500;}.cls-7{fill:#f49c00;}.cls-8{fill:#ffbf3e;}.cls-9{fill:#c67239;}</style></defs><title>super-mario-cards-icons</title><g id="_1up-2" data-name="1up"><path d="M74.673,389.4V331.1h-8.3v-8.4l16.6-8.3h8.4v75h-16.7Z"/><path d="M158.072,314.4h16.6v58.3a16.136,16.136,0,0,1-4.9,11.75,15.9,15.9,0,0,1-11.7,4.95h-16.7a16.817,16.817,0,0,1-16.7-16.7V314.4h16.7v58.3a8.143,8.143,0,0,0,2.45,5.9,7.9,7.9,0,0,0,5.85,2.5,8.021,8.021,0,0,0,5.95-2.5,8.151,8.151,0,0,0,2.45-5.9V314.4Z"/><path d="M191.371,389.4v-75h33.4a15.9,15.9,0,0,1,11.7,4.95,16.138,16.138,0,0,1,4.9,11.75v8.3a16.136,16.136,0,0,1-4.9,11.75,15.9,15.9,0,0,1-11.7,4.95h-16.7v33.3h-16.7Zm16.7-41.7h8.3a8.1,8.1,0,0,0,5.95-2.45,7.984,7.984,0,0,0,2.45-5.85v-8.3a8.366,8.366,0,0,0-8.4-8.4h-8.3v25Z"/></g><g id="chest"><path id="chest-2" data-name="chest" class="cls-1" d="M265.427,35H34.627c-9.987,0-9.734,100.575-9.62,117.574A2.443,2.443,0,0,0,27.452,155H30.22l4.407,102h230.8l4.407-102h2.742a2.442,2.442,0,0,0,2.445-2.45C274.958,135.479,274.212,35,265.427,35Z"/><g id="dividers"><path id="divider" class="cls-2" d="M31.26,205.427c-0.1,2-.19,4.028-0.275,6.061,17.163-1.239,47.984-1.822,118.964-1.822,69.488,0,101.68.517,119.593,1.743-0.094-2.034-.194-4.058-0.3-6.062-18.333-1.234-50.492-1.682-119.293-1.682C79.741,203.667,48.909,204.176,31.26,205.427Z"/><path id="divider-2" data-name="divider" class="cls-2" d="M26.26,82.427c-0.1,2-.19,4.028-0.275,6.061,17.163-1.239,52.984-2.822,123.964-2.822,69.488,0,105.68,1.517,123.593,2.743-0.094-2.034-.194-4.058-0.3-6.062-18.333-1.234-54.492-2.682-123.293-2.682C79.741,79.667,43.909,81.176,26.26,82.427Z"/></g><g id="gold_borders" data-name="gold borders"><g id="gold_border_bottom" data-name="gold border bottom"><polygon class="cls-3" points="248.299 160 246.353 237 53.701 237 51.756 160 30.027 160 34.627 257 265.427 257 270.027 160 248.299 160"/></g><g id="gold_border_top" data-name="gold border top"><path class="cls-3" d="M263.1,36H248.836c1.617,37,3.041,63,3.513,98H47.506c0.153-35,1.486-61,3.155-98H36.954c-9.785,0-9.538,98.757-9.426,115.413a2.582,2.582,0,0,0,2.4,2.587H270.1a2.581,2.581,0,0,0,2.4-2.611C272.437,134.663,271.706,36,263.1,36Z"/></g></g><g id="shadow" class="cls-4"><path class="cls-5" d="M270.1,154H29.924a2.487,2.487,0,0,1-2.4-2.483c0-.378,0-0.866-0.008-1.327-0.04,7.908-.014,14.17.008,17.354a2.463,2.463,0,0,0,2.4,2.457H270.1a2.485,2.485,0,0,0,2.4-2.507c-0.011-2.915-.042-8.263-0.132-15.188A2.434,2.434,0,0,1,270.1,154Z"/></g><path id="border" class="cls-6" d="M283.483,86.882c-0.747-15.757-1.74-28.289-2.95-37.262a84.581,84.581,0,0,0-2.622-13.233C275,26.971,269.513,25,265.427,25H34.627a11.871,11.871,0,0,0-8.444,3.607c-4.163,4.191-8.387,12.452-10.3,62.3-1.016,26.408-.924,53.926-0.872,61.731A12.456,12.456,0,0,0,20.551,162.9l4.086,94.781A9.789,9.789,0,0,0,34.627,267h230.8a9.789,9.789,0,0,0,9.991-9.322l4.086-94.905a12.157,12.157,0,0,0,1.89-1.5,12.285,12.285,0,0,0,3.627-8.795C284.99,144.031,284.786,114.348,283.483,86.882ZM29.924,154a2.582,2.582,0,0,1-2.4-2.587C27.417,134.757,27.169,36,36.954,36H263.1c8.607,0,9.338,98.663,9.4,115.389A2.58,2.58,0,0,1,270.1,154H29.924Zm4.7,103L30.6,164H269.454l-4.027,93H34.627Z"/><g id="lock"><rect class="cls-7" x="117.58" y="128.92" width="64.739" height="47.851" rx="3" ry="3"/><rect class="cls-8" x="117.58" y="126.517" width="64.739" height="47.851" rx="3" ry="3"/><path class="cls-6" d="M159.289,161.943l-4.449-9.81a8.577,8.577,0,0,0,3.614-7,8.4,8.4,0,1,0-16.791-.081,8.352,8.352,0,0,0,3.615,6.877l-4.45,10.016c-0.573,1.237.33,3.054,1.693,3.054H157.6C158.958,165,159.862,163.18,159.289,161.943Z"/></g><path id="glow" class="cls-9" d="M207.372,44h-5a2.5,2.5,0,0,0,0,5h5a2.5,2.5,0,0,0,0-5h0Zm-15,0h-36a2.5,2.5,0,0,0,0,5h36a2.5,2.5,0,0,0,0-5h0Zm-56,0h-5a2.5,2.5,0,0,0,0,5h5a2.5,2.5,0,0,0,0-5h0Zm-15,0h-36a2.5,2.5,0,1,0,0,5h36a2.5,2.5,0,0,0,0-5h0Zm-56,0h-5a2.5,2.5,0,0,0,0,5h5a2.5,2.5,0,0,0,0-5h0Z"/></g></svg>