<svg id="coin_10" data-name="coin 10" xmlns="http://www.w3.org/2000/svg" viewBox="0 0 300 420"><defs><style>.cls-1{fill:#ffbf3e;}.cls-2{fill:#ffd899;}.cls-3{fill:#ffd45a;}.cls-4{fill:#f49c00;}.cls-5{fill:#ffb229;}.cls-6{fill:#3a2500;}</style></defs><title>super-mario-cards-icons</title><path d="M103.43,390.2V331.9H95v-8.4l16.86-8.3h8.532v75H103.43Z"/><path d="M171.177,315.2H188.14a16.269,16.269,0,0,1,11.884,4.95A16.014,16.014,0,0,1,205,331.9v41.6a16.013,16.013,0,0,1-4.976,11.75,16.269,16.269,0,0,1-11.884,4.95H171.177a16.513,16.513,0,0,1-11.935-4.9,15.881,15.881,0,0,1-5.028-11.8V331.9a15.882,15.882,0,0,1,5.028-11.8A16.521,16.521,0,0,1,171.177,315.2Zm16.86,15.2q-1.827-6.9-8.43-6.9a8.175,8.175,0,0,0-5.941,2.45,8.036,8.036,0,0,0-2.489,5.95v28.3ZM171.38,374.9a8.607,8.607,0,0,0,2.691,5.2,8.934,8.934,0,0,0,11.579-.7,8.088,8.088,0,0,0,2.489-5.9V345.2Z"/><g id="coin-2" data-name="coin"><g id="coin_base" data-name="coin base"><circle id="coin_background" data-name="coin background" class="cls-1" cx="150" cy="150" r="121.575"/><g id="coin_gloss" data-name="coin gloss"><path class="cls-2" d="M102.891,43.566c-1.4,0-2.841,1.059-4.108,1.68-0.24.118-.479,0.235-0.718,0.355,0.092-.046.327,0,0.327,0.126a2.065,2.065,0,0,0-.632.034,0.242,0.242,0,0,0,.1.029,2.308,2.308,0,0,0-1.5,1.167,2.45,2.45,0,0,0-.117,2.216,2.483,2.483,0,0,0,1.733,1.414,3.941,3.941,0,0,0,2.635-.708q1.393-.691,2.805-1.343a3.058,3.058,0,0,0,1.745-1.5A2.509,2.509,0,0,0,102.891,43.566ZM90.05,50.432c-1.308,0-2.61,1.185-3.656,1.869q-1.894,1.237-3.739,2.547-3.471,2.464-6.757,5.175A117.577,117.577,0,0,0,63.492,71.881c-0.717.794-1.661,1.58-1.761,2.713a2.5,2.5,0,0,0,1.893,2.633c1.422,0.34,2.278-.6,3.135-1.558q1.5-1.683,3.075-3.305A112.478,112.478,0,0,1,82.513,61.108q3.722-2.832,7.671-5.348c1.136-.723,2.388-1.368,2.349-2.912A2.507,2.507,0,0,0,90.05,50.432Z"/><path class="cls-2" d="M201.935,254.4c-0.092.046-.327,0-0.327-0.126a2.065,2.065,0,0,0,.632-0.034,0.242,0.242,0,0,0-.1-0.029,2.308,2.308,0,0,0,1.5-1.167,2.45,2.45,0,0,0,.117-2.216,2.483,2.483,0,0,0-1.733-1.414,3.941,3.941,0,0,0-2.635.708q-1.393.691-2.805,1.343a3.058,3.058,0,0,0-1.745,1.5,2.509,2.509,0,0,0,2.277,3.472m12.84-6.865c1.308,0,2.61-1.185,3.656-1.869q1.894-1.237,3.739-2.547,3.471-2.464,6.757-5.175a117.577,117.577,0,0,0,12.405-11.858c0.717-.794,1.661-1.58,1.761-2.713a2.5,2.5,0,0,0-1.893-2.633c-1.422-.34-2.278.6-3.135,1.558q-1.5,1.683-3.075,3.305a112.478,112.478,0,0,1-12.678,11.255q-3.722,2.832-7.671,5.348c-1.136.723-2.388,1.368-2.349,2.912A2.507,2.507,0,0,0,209.95,249.568Zm34.737-33.432c1.833,0,2.814-2.208,3.655-3.524,0.823-1.288,2.038-2.762,1.1-4.32a2.506,2.506,0,0,0-3.192-.96c-1.187.566-1.827,2.208-2.509,3.259-0.667,1.029-1.7,2.092-1.508,3.412A2.505,2.505,0,0,0,244.687,216.136Z"/></g></g><g id="inner_coin_background" data-name="inner coin background"><circle class="cls-3" cx="150" cy="150" r="94.283"/><path class="cls-4" d="M58.694,152.977A94.281,94.281,0,0,1,218.139,84.838a94.281,94.281,0,1,0-133.3,133.3A93.963,93.963,0,0,1,58.694,152.977Z"/></g><g id="groef"><rect class="cls-5" x="133.128" y="84.33" width="33.743" height="131.339" rx="12" ry="12"/><path id="shadow" class="cls-4" d="M136,206.737V99.217A12.3,12.3,0,0,1,148.015,87h9.925a11.807,11.807,0,0,1,6.786,2.134A11.923,11.923,0,0,0,154.962,84h-9.925A12.342,12.342,0,0,0,133,96.24V203.76a11.923,11.923,0,0,0,5.134,9.764A11.807,11.807,0,0,1,136,206.737Z"/></g><path id="coin_border" data-name="coin border" class="cls-6" d="M150,28.425A121.575,121.575,0,1,1,28.425,150,121.575,121.575,0,0,1,150,28.425m0-9.925A131.5,131.5,0,0,0,57.015,242.985,131.5,131.5,0,0,0,242.985,57.015,130.639,130.639,0,0,0,150,18.5h0Z"/></g></svg>