<svg id="star" xmlns="http://www.w3.org/2000/svg" viewBox="0 0 300 300"><defs><style>.cls-1{fill:#ffbf3e;}.cls-2{fill:#f49c00;}.cls-3{fill:#ffd899;}.cls-4{fill:#3a2500;}.cls-5{fill:#fff;}.cls-6{fill:#ff8a95;}</style></defs><title>Untitled-1</title><g id="star-2" data-name="star"><path class="cls-1" d="M152.76,32.938l36.16,73.267a3.078,3.078,0,0,0,2.318,1.684l80.855,11.749a3.078,3.078,0,0,1,1.706,5.251l-58.507,57.031a3.078,3.078,0,0,0-.885,2.725l13.812,80.529a3.078,3.078,0,0,1-4.467,3.245L151.432,230.4a3.078,3.078,0,0,0-2.865,0l-72.319,38.02a3.078,3.078,0,0,1-4.467-3.245l13.812-80.529a3.078,3.078,0,0,0-.885-2.725L26.2,124.889a3.078,3.078,0,0,1,1.706-5.251l80.855-11.749a3.078,3.078,0,0,0,2.318-1.684l36.16-73.267A3.078,3.078,0,0,1,152.76,32.938Z"/><path id="shadow" class="cls-2" d="M79.008,223.041l-7.226,42.132a3.078,3.078,0,0,0,4.467,3.245l72.319-38.02a3.078,3.078,0,0,1,2.865,0l72.319,38.02a3.078,3.078,0,0,0,4.467-3.245l-13.812-80.528a3.079,3.079,0,0,1,.885-2.725L273.8,124.889a3.078,3.078,0,0,0-1.706-5.251l-4.966-.722C205.347,169.808,125.45,226.389,79.008,223.041Z"/><g id="gloss"><rect class="cls-3" x="50.369" y="118.056" width="35.401" height="6.176" rx="2.5" ry="2.5" transform="translate(-16.424 10.825) rotate(-8.117)"/><rect class="cls-3" x="88.188" y="114.718" width="6.574" height="6.176" rx="2.5" ry="2.5" transform="translate(-15.718 14.097) rotate(-8.117)"/><rect class="cls-3" x="111.141" y="84.007" width="35.401" height="6.542" rx="2.5" ry="2.5" transform="translate(-6.76 163.632) rotate(-63.497)"/><rect class="cls-3" x="136.183" y="57.327" width="11.926" height="6.542" rx="2.5" ry="2.5" transform="translate(24.484 160.763) rotate(-63.497)"/></g><path id="border" class="cls-4" d="M150,31.222a3.042,3.042,0,0,1,2.76,1.716l36.16,73.267a3.078,3.078,0,0,0,2.318,1.684l80.855,11.749a3.078,3.078,0,0,1,1.706,5.251l-58.507,57.031a3.079,3.079,0,0,0-.885,2.725l13.812,80.529a3.07,3.07,0,0,1-4.467,3.245L151.432,230.4a3.078,3.078,0,0,0-2.865,0l-72.319,38.02a3.07,3.07,0,0,1-4.467-3.245l13.812-80.529a3.079,3.079,0,0,0-.885-2.725L26.2,124.889a3.078,3.078,0,0,1,1.706-5.251l80.855-11.749a3.078,3.078,0,0,0,2.318-1.684l36.16-73.267A3.042,3.042,0,0,1,150,31.222m0-10.261A13.257,13.257,0,0,0,138.038,28.4L103.55,98.277,26.431,109.483a13.34,13.34,0,0,0-7.393,22.753l55.8,54.395L61.668,263.438A13.331,13.331,0,0,0,81.024,277.5L150,241.237,218.977,277.5a13.338,13.338,0,0,0,19.355-14.062l-13.173-76.807,55.8-54.395a13.34,13.34,0,0,0-7.393-22.753L196.45,98.277,161.962,28.4A13.257,13.257,0,0,0,150,20.961h0Z"/><g id="eyes"><rect class="cls-4" x="123.363" y="140.331" width="15.392" height="30.784" rx="6" ry="6"/><rect class="cls-4" x="157.14" y="140.331" width="15.392" height="30.784" rx="6" ry="6"/><g id="gloss-2" data-name="gloss"><path class="cls-5" d="M133.276,145.11a2.343,2.343,0,0,0-.72-0.11h-3.078c-1.133,0-1.477.865-1.477,2v4.619a0.31,0.31,0,0,1-.188-0.231,13.062,13.062,0,0,1,5.453-6.2C133.316,145.154,133.313,145.15,133.276,145.11Z"/></g><g id="gloss-3" data-name="gloss"><path class="cls-5" d="M167.138,145.11a2.343,2.343,0,0,0-.72-0.11H163.34a2.274,2.274,0,0,0-2.34,2v4.619a0.6,0.6,0,0,0,.243-0.231,13.506,13.506,0,0,1,5.669-6.2A0.475,0.475,0,0,0,167.138,145.11Z"/></g></g><g id="cheeks"><ellipse class="cls-6" cx="190.19" cy="175.475" rx="9.406" ry="4.36"/><ellipse class="cls-6" cx="108.1" cy="175.475" rx="9.406" ry="4.36"/></g></g></svg>