<svg id="flower" xmlns="http://www.w3.org/2000/svg" viewBox="0 0 300 300"><defs><style>.cls-1{fill:#11a52d;}.cls-2{fill:#1a822b;}.cls-3{fill:#3a2500;}.cls-4{fill:#40a4ff;}.cls-5{fill:#80e1ff;}.cls-6{fill:#def9ff;}.cls-7{fill:#83d0ff;}.cls-8{fill:#ff8a95;}.cls-9{fill:#fff;}</style></defs><title>Untitled-1</title><path class="cls-1" d="M158.518,275.1c0,3.624-17.1,3.5-17.1,0V182.228h17.1V275.1Z"/><path class="cls-2" d="M159,275.1V238.117c-4,8.039-5.067,37.683-16.257,38.209C146.176,278.569,159,278.244,159,275.1Z"/><path class="cls-3" d="M158.518,182.227V275.1c0,1.8-4.2,2.672-8.439,2.672-4.312,0-8.661-.906-8.661-2.672V182.227h17.1m0-9.5h-17.1a9.5,9.5,0,0,0-9.5,9.5V275.1c0,2.855,1.31,12.172,18.161,12.172,16.645,0,17.939-9.317,17.939-12.172V182.227a9.5,9.5,0,0,0-9.5-9.5h0Z"/><g id="flower_head" data-name="flower head"><ellipse class="cls-4" cx="149.665" cy="104.723" rx="98.628" ry="80.688"/><path class="cls-5" d="M149.665,165.353c-23.189,0-44.77-7.208-60.769-20.3-8.073-6.6-21.615-20.626-21.615-40.335S80.824,70.992,88.9,64.388c16-13.088,37.579-20.3,60.769-20.3s44.77,7.208,60.769,20.3c8.073,6.6,21.615,20.627,21.615,40.335s-13.543,33.73-21.615,40.335C194.436,158.146,172.855,165.353,149.665,165.353Z"/><path class="cls-6" d="M149.665,145.3c-19.135,0-36.7-6.023-49.471-16.959-4.119-3.528-13.7-12.892-13.7-23.614s9.581-20.086,13.7-23.614c12.768-10.936,30.338-16.959,49.472-16.959s36.7,6.023,49.472,16.959c4.119,3.528,13.7,12.892,13.7,23.614s-9.581,20.086-13.7,23.614C186.369,139.273,168.8,145.3,149.665,145.3Z"/><g id="gloss"><path class="cls-7" d="M100.374,40.4a5.683,5.683,0,0,0-2.514,1.017c-0.7.373-1.381,0.763-2.071,1.145-0.106.059-.234,0.133-0.364,0.208l-0.553.32q-0.357.208-.711,0.419c-1.226.729-3.357,1.566-3.968,2.954a2.4,2.4,0,0,0,1.914,3.319,3.248,3.248,0,0,0,2.149-.754q1.366-.869,2.762-1.689,1.485-.873,3-1.69a5.716,5.716,0,0,0,2.363-1.6A2.4,2.4,0,0,0,100.374,40.4ZM84.87,50.472c-1.172,0-2.047.971-2.88,1.673q-1.5,1.267-2.951,2.6-1.511,1.4-2.951,2.863-0.353.36-.7,0.725A76.49,76.49,0,0,0,66.508,69.5,68.672,68.672,0,0,0,60.261,81.54a64.153,64.153,0,0,0-2.2,6.535,6.6,6.6,0,0,0-.5,2.822,2.4,2.4,0,0,0,2.053,1.917c2.3,0.276,2.638-2.1,3.1-3.744a59.892,59.892,0,0,1,2.056-6.024,63.794,63.794,0,0,1,5.865-11.194,72.155,72.155,0,0,1,9.517-11.6q2.727-2.708,5.705-5.145a2.76,2.76,0,0,0,1.362-2.615A2.4,2.4,0,0,0,84.87,50.472Z"/></g><path class="cls-3" d="M149.665,24.034c54.471,0,98.628,36.125,98.628,80.688s-44.157,80.688-98.628,80.688-98.628-36.125-98.628-80.688,44.157-80.688,98.628-80.688m0-11.143c-28.1,0-54.635,9.051-74.725,25.487C53.707,55.75,42.013,79.311,42.013,104.723S53.707,153.7,74.94,171.067c20.09,16.436,46.628,25.487,74.725,25.487S204.3,187.5,224.39,171.067c21.234-17.371,32.927-40.933,32.927-66.344S245.624,55.75,224.39,38.378c-20.09-16.436-46.627-25.487-74.725-25.487h0Z"/><g id="cheeks"><ellipse class="cls-8" cx="187.176" cy="127.918" rx="8.708" ry="4.036"/><ellipse class="cls-8" cx="112.126" cy="127.918" rx="8.708" ry="4.036"/></g><g id="eyes"><rect class="cls-3" x="117.707" y="90.631" width="14.25" height="28.5" rx="6" ry="6"/><g id="gloss-2" data-name="gloss"><path class="cls-9" d="M126.884,95.079A2.378,2.378,0,0,0,126.218,95h-2.85c-1.049,0-2.368.755-2.368,1.8v4.276c1,0.036.294-.143,0.326-0.214a12.584,12.584,0,0,1,5.3-5.731A0.828,0.828,0,0,0,126.884,95.079Z"/></g><rect class="cls-3" x="167.978" y="90.631" width="14.25" height="28.5" rx="6" ry="6"/><g id="gloss-3" data-name="gloss"><path class="cls-9" d="M177.234,95.079A2.378,2.378,0,0,0,176.568,95h-2.85A1.672,1.672,0,0,0,172,96.8v4.276a0.431,0.431,0,0,1,0-.214,12.244,12.244,0,0,1,5.136-5.731C177.184,95.108,177.269,95.116,177.234,95.079Z"/></g></g></g><g id="leaves"><g id="leaf"><path class="cls-1" d="M172.219,255.99c-2.4-.563-4.363-2.924-3.677-5.287,4.227-14.571,15.975-46.64,42.488-60.068,14.925-7.559,37.839-6.128,64.364,6.618a3.5,3.5,0,0,1,1.959,2.94c0.5,7.962,1.25,31.4-12.766,44.6C251.861,256.783,232.7,270.215,172.219,255.99Z"/><path class="cls-2" d="M277.462,202.244c-24.419,37.06-73.819,53.685-108.577,51.232a5.214,5.214,0,0,0,3.335,2.514c60.481,14.225,79.641.793,92.367-11.193C277.551,232.586,277.878,211.623,277.462,202.244Z"/><path class="cls-3" d="M286.834,199.6a13,13,0,0,0-7.326-10.912c-16.559-7.957-32.822-12.163-47.03-12.163h0c-9.7,0-18.363,1.9-25.741,5.632-28.765,14.569-41.994,47.54-47.319,65.9A13.1,13.1,0,0,0,160.75,258.4a14.686,14.686,0,0,0,9.294,6.837c18.241,4.29,33.668,6.376,47.163,6.376,28.794,0,42.918-9.565,53.892-19.9C282.827,240.667,288.268,222.648,286.834,199.6ZM264.586,244.8c-8.823,8.31-20.745,17.316-47.379,17.316-11.782,0-26.438-1.761-44.988-6.124a5.16,5.16,0,0,1-1.173-.439c39.59-36.373,79.5-41.862,79.921-41.916a2.375,2.375,0,0,0-.479-4.725c-39.761,3.007-67.508,24.834-80.754,37.89,5.053-15.782,16.943-43.832,41.295-56.166,5.966-3.022,13.209-4.607,21.448-4.607,12.373,0,26.993,3.574,42.916,11.225a3.5,3.5,0,0,1,1.959,2.94C277.848,208.155,278.6,231.6,264.586,244.8Z"/></g><g id="leaf-2" data-name="leaf"><path class="cls-1" d="M126.49,255.99c2.4-.563,4.363-2.924,3.677-5.287-4.227-14.571-15.975-46.64-42.488-60.068-14.925-7.559-37.839-6.128-64.364,6.618a3.5,3.5,0,0,0-1.959,2.94c-0.5,7.962-1.25,31.4,12.766,44.6C46.849,256.783,66.009,270.215,126.49,255.99Z"/><path class="cls-2" d="M21.248,202.244c24.419,37.06,73.819,53.685,108.577,51.232a5.214,5.214,0,0,1-3.335,2.514c-60.481,14.225-79.641.793-92.367-11.193C21.158,232.586,20.832,211.623,21.248,202.244Z"/><path class="cls-3" d="M27.61,251.713c10.974,10.336,25.1,19.9,53.892,19.9,13.495,0,28.922-2.086,47.163-6.376a14.686,14.686,0,0,0,9.294-6.837,13.1,13.1,0,0,0,1.332-10.345c-5.325-18.357-18.554-51.327-47.319-65.9-7.378-3.737-16.038-5.632-25.741-5.632h0c-14.208,0-30.471,4.206-47.03,12.163A13,13,0,0,0,11.875,199.6C10.441,222.648,15.882,240.667,27.61,251.713Zm-6.253-51.52a3.5,3.5,0,0,1,1.959-2.94c15.922-7.651,30.543-11.225,42.916-11.225,8.239,0,15.482,1.585,21.448,4.607,24.352,12.334,36.242,40.384,41.295,56.166-13.246-13.055-40.993-34.882-80.754-37.89a2.375,2.375,0,0,0-.479,4.725c0.421,0.054,40.331,5.542,79.921,41.916a5.16,5.16,0,0,1-1.173.439c-18.55,4.363-33.206,6.124-44.988,6.124-26.634,0-38.556-9.007-47.379-17.316C20.107,231.6,20.861,208.155,21.357,200.192Z"/></g></g></svg>