<svg id="Layer_13" data-name="Layer 13" xmlns="http://www.w3.org/2000/svg" viewBox="0 0 303.807 355.62"><title>super-mario-cards-spades</title><path d="M2151.946,656.029c-66.873-73.763-109.082-131.649-109.082-131.649s-40.614,59.183-109.073,131.6c-87.137,97.063-16.286,145.695-4.493,149.742s40.369,23.1,100.731-7.065c0,0,6.554,20.345-37.594,81.345h100.813c-44.149-61-37.581-81.345-37.581-81.345,60.362,30.168,88.952,11.216,100.745,7.169S2239.083,753.092,2151.946,656.029ZM2090,768h-6.511L2010,701.683V768h-14V648h6.3l73.7,66.933V648h14V768Z" transform="translate(-1890.961 -524.38)"/></svg>