<svg id="mushroom" xmlns="http://www.w3.org/2000/svg" viewBox="0 0 300 300"><defs><style>.cls-1{fill:#d82900;}.cls-2{fill:#fff;}.cls-3{fill:#ff755a;}.cls-4{fill:#3a2500;}.cls-5{fill:#ffe9d7;}.cls-6{fill:#e5b89a;}.cls-7{fill:#ff8a95;}</style></defs><title>Untitled-1</title><g id="mushroom_head" data-name="mushroom head"><path id="crown" class="cls-1" d="M155.754,38.916C187.5,40.23,258.915,58.329,271.645,152.209c2.355,17.167-6.562,55.654-40.062,66.077s-81.917,8.073-81.917,8.073-48.417,2.35-81.917-8.073-42.417-48.911-40.062-66.077C40.419,58.329,111.747,40.233,143.5,38.918Z"/><circle id="center_spot" data-name="center spot" class="cls-2" cx="150.334" cy="94.542" r="51"/><path id="right_spot" data-name="right spot" class="cls-2" d="M250.716,92.02a51.005,51.005,0,0,0,19.729,79.631,59,59,0,0,0,1.2-19.443C268.24,127.1,260.635,107.416,250.716,92.02Z"/><path id="left_spot" data-name="left spot" class="cls-2" d="M48.9,91.574c-10.053,15.462-17.77,35.28-21.208,60.635a59.22,59.22,0,0,0,1.252,19.685A51.005,51.005,0,0,0,61,124.542,50.783,50.783,0,0,0,48.9,91.574Z"/><path id="glow" class="cls-3" d="M88.834,59.656c-1.177-.009-2.2.929-3.125,1.547a11.467,11.467,0,0,0-2.96,2.205,2.519,2.519,0,0,0,2.15,3.971c1.132-.056,2.072-0.993,2.966-1.6a12.89,12.89,0,0,0,2.9-2.053A2.524,2.524,0,0,0,88.834,59.656ZM56.975,95.215c2.119,0.769,3.152-1.325,4.135-2.758q1.762-2.566,3.674-5.024a102.462,102.462,0,0,1,8.149-9.269q2.162-2.177,4.454-4.22c1.25-1.113,2.9-2.356,1.888-4.234a2.527,2.527,0,0,0-1.885-1.294,3.218,3.218,0,0,0-2.581,1.135q-2.25,1.966-4.387,4.058a107.693,107.693,0,0,0-13.18,15.65q-0.385.557-.764,1.118c-0.248.368-.523,0.734-0.744,1.118C54.815,93.092,55.607,94.359,56.975,95.215Z"/><path class="cls-3" d="M99.66,54.575a7.2,7.2,0,0,0-3.12,1.23,2.522,2.522,0,0,0,.14,4.305A2.749,2.749,0,0,0,99.319,60a5.17,5.17,0,0,0,2.447-1.609A2.522,2.522,0,0,0,99.66,54.575Z"/><path id="crown_border" data-name="crown border" class="cls-4" d="M155.754,38.916C187.5,40.23,258.915,58.329,271.645,152.209c2.355,17.167-6.562,55.654-40.062,66.077-23.089,7.183-53.263,8.3-69.789,8.3-7.452,0-12.128-.227-12.128-0.227s-4.678.227-12.128,0.227c-16.525,0-46.7-1.116-69.789-8.3-33.5-10.423-42.417-48.911-40.062-66.077C40.419,58.329,111.747,40.233,143.5,38.918l12.257,0m0-9.916h0l-12.257-.039c-0.137,0-.274-0.018-0.411-0.013-11.68.484-41.917,3.754-70.369,23.73A122.006,122.006,0,0,0,38.12,89.938c-10.347,17.2-17.191,37.7-20.341,60.93-1.3,9.442-.023,25.222,7.439,41.152,5.88,12.554,17.517,28.957,39.561,35.816,24.474,7.614,56.091,8.751,72.76,8.751,6.324,0,10.714-.159,12.128-0.217,1.414,0.059,5.8.217,12.128,0.217,16.669,0,48.286-1.137,72.76-8.751,22.045-6.859,33.681-23.263,39.562-35.816,7.462-15.93,8.734-31.711,7.437-41.169-3.148-23.214-10-43.716-20.354-60.921a122.066,122.066,0,0,0-34.624-37.265c-28.474-19.974-58.723-23.214-70.407-23.7-0.137-.006-0.275.034-0.412,0.034h0Z"/></g><g id="mushroom_stem" data-name="mushroom stem"><path id="stem_body" data-name="stem body" class="cls-5" d="M150,171.338c20.733,0,40.533,3.449,57.26,9.973,14.03,5.473,25.168,12.93,31.74,21.194v16.862a41.244,41.244,0,0,1-7.3,23.163,9.852,9.852,0,0,0-1.4,1.493A41.8,41.8,0,0,1,196.6,261H103.4A41.8,41.8,0,0,1,69.7,244.024a9.926,9.926,0,0,0-1.4-1.5A41.211,41.211,0,0,1,61,219.368V202.506c6.573-8.264,17.711-15.722,31.74-21.194,16.726-6.525,36.526-9.973,57.26-9.973"/><path id="shadow" class="cls-6" d="M103.4,261H196.6A41.8,41.8,0,0,0,230.3,244.024a9.926,9.926,0,0,1,1.4-1.5,41.211,41.211,0,0,0,7.3-23.153V202.506a47.384,47.384,0,0,0-4.618-4.972c-10.882,42.579-62.4,58.488-156.646,54.676A41.516,41.516,0,0,0,103.4,261Z"/><path id="stem_border" data-name="stem border" class="cls-4" d="M150,171.338c20.733,0,40.533,3.449,57.26,9.973,14.03,5.473,25.168,12.93,31.74,21.194v16.862a41.244,41.244,0,0,1-7.3,23.163,9.852,9.852,0,0,0-1.4,1.493A41.8,41.8,0,0,1,196.6,261H103.4A41.8,41.8,0,0,1,69.7,244.024a9.926,9.926,0,0,0-1.4-1.5A41.211,41.211,0,0,1,61,219.368V202.506c6.573-8.264,17.711-15.722,31.74-21.194,16.726-6.525,36.526-9.973,57.26-9.973m0-10c-45.383,0-84,15.787-99,37.9v20.135a51.176,51.176,0,0,0,9.849,29.958c0.276,0.241.569,0.456,0.852,0.695A52.075,52.075,0,0,0,103.4,271H196.6a52.075,52.075,0,0,0,41.7-20.979c0.282-.239.576-0.464,0.852-0.705A51.144,51.144,0,0,0,249,219.368V199.233c-15-22.108-53.617-37.9-99-37.9h0Z"/></g><g id="cheeks"><ellipse class="cls-7" cx="184.859" cy="222.322" rx="8.708" ry="4.036"/><ellipse class="cls-7" cx="115.809" cy="222.322" rx="8.708" ry="4.036"/></g><g id="eyes"><rect class="cls-4" x="123.073" y="183.674" width="14.25" height="28.5" rx="6" ry="6"/><g id="gloss"><path class="cls-2" d="M131.884,188.1a2.186,2.186,0,0,0-.666-0.1h-2.85c-1.049,0-2.368.8-2.368,1.846v4.276c1,0.036.294-.143,0.326-0.214a12.609,12.609,0,0,1,5.3-5.742A0.763,0.763,0,0,0,131.884,188.1Z"/></g><rect class="cls-4" x="163.344" y="183.674" width="14.25" height="28.5" rx="6" ry="6"/><g id="gloss-2" data-name="gloss"><path class="cls-2" d="M172.234,188.1a2.186,2.186,0,0,0-.666-0.1h-2.85A1.707,1.707,0,0,0,167,189.846v4.276a0.431,0.431,0,0,1,0-.214,12.268,12.268,0,0,1,5.136-5.742C172.184,188.14,172.269,188.137,172.234,188.1Z"/></g></g></svg>